#!OML:ASF F:\VICON\USERDATA\INSTALL\rory3\rory3.ASF
:FULLY-SPECIFIED
:DEGREES
1304
root -7.38295 17.7435 15.8105 -386.575 -73.8651 27.1124
lowerback 11.0592 0.152197 -6.96151
upperback 1.37288 -0.685552 0.00586082
thorax -4.68725 -0.233511 4.03694
lowerneck -14.1406 -6.63108 -11.271
upperneck 31.2166 -10.4111 8.94962
head 14.1086 -5.01022 3.73517
rclavicle 2.68359e-014 1.19271e-014
rhumerus -38.2014 -10.9176 -79.7653
rradius 35.6507
rwrist 3.2584
rhand -17.3359 11.1346
rfingers 7.12502
rthumb 8.91118 -18.6573
lclavicle 2.68359e-014 1.19271e-014
lhumerus -32.875 2.1593 77.7828
lradius 33.7482
lwrist -3.55372
lhand -21.0173 23.3526
lfingers 7.12502
lthumb 5.3576 53.2649
rfemur -28.7482 -18.3152 20.2725
rtibia 35.5331
rfoot -10.9803 -16.7117
rtoes 22.78
lfemur -1.40578 2.77076 -27.1952
ltibia 20.7602
lfoot -9.79036 4.14807
ltoes -22.3549
1305
root -7.46213 17.756 15.8307 -387.577 -74.3452 28.1272
lowerback 10.964 0.191142 -6.93762
upperback 1.47339 -0.622645 -0.0158366
thorax -4.53624 -0.212065 3.98936
lowerneck -14.1259 -6.67948 -11.2711
upperneck 31.1194 -10.473 8.94754
head 14.0707 -5.03678 3.72076
rclavicle -8.74653e-015 -8.74653e-015
rhumerus -38.2681 -10.647 -79.8636
rradius 35.8442
rwrist 2.95354
rhand -17.215 11.0183
rfingers 7.12502
rthumb 9.02789 -18.7686
lclavicle -8.74653e-015 -8.74653e-015
lhumerus -32.5463 2.06779 77.748
lradius 34.0379
lwrist -3.33161
lhand -20.8062 23.5807
lfingers 7.12502
lthumb 5.56142 53.4877
rfemur -28.7952 -17.6256 20.339
rtibia 33.9423
rfoot -10.6688 -18.0732
rtoes 26.0917
lfemur -0.661366 2.82258 -27.2767
ltibia 19.9372
lfoot -9.3813 4.62793
ltoes -22.6425
1306
root -7.54515 17.7691 15.8493 -389.436 -74.8513 30.0833
lowerback 10.9024 0.306209 -7.07371
upperback 1.43516 -0.488771 -0.124552
thorax -4.55834 -0.142996 3.93163
lowerneck -13.981 -6.72364 -11.3008
upperneck 31.1145 -10.5601 8.95567
head 14.0511 -5.08463 3.71629
rclavicle -6.4605e-015 1.90833e-014
rhumerus -38.5762 -10.3854 -79.9644
rradius 36.0064
rwrist 2.83446
rhand -17.3546 10.7492
rfingers 7.12502
rthumb 8.8932 -19.0434
lclavicle -6.4605e-015 1.90833e-014
lhumerus -32.4336 1.86806 77.6826
lradius 34.3888
lwrist -3.03019
lhand -20.092 24.0917
lfingers 7.12502
lthumb 6.25102 53.9795
rfemur -29.0251 -17.2356 20.3762
rtibia 32.5582
rfoot -10.1936 -19.5971
rtoes 27.4653
lfemur 0.101366 2.91382 -27.5742
ltibia 18.9739
lfoot -8.93656 5.10826
ltoes -22.4425
1307
root -7.63297 17.7765 15.8599 -392.775 -74.9321 33.8865
lowerback 10.487 0.401421 -7.87491
upperback 1.31946 -0.437814 -0.381908
thorax -4.45163 -0.107324 4.10084
lowerneck -13.8931 -6.78109 -11.3192
upperneck 31.1731 -10.6704 8.9538
head 14.0739 -5.14131 3.7014
rclavicle 3.01159e-014 -8.74653e-015
rhumerus -38.8301 -10.184 -80.1187
rradius 36.0947
rwrist 2.60153
rhand -17.8295 10.4882
rfingers 7.12502
rthumb 8.43491 -19.3234
lclavicle 3.01159e-014 -8.74653e-015
lhumerus -32.405 1.68188 77.5969
lradius 34.8308
lwrist -2.58006
lhand -20.1012 24.2481
lfingers 7.12502
lthumb 6.24215 54.1361
rfemur -29.6745 -16.8303 19.793
rtibia 31.4472
rfoot -9.90914 -21.25
rtoes 28.2465
lfemur 0.554045 3.36306 -28.4385
ltibia 17.9237
lfoot -8.57294 5.0524
ltoes -21.7444
1308
root -7.71516 17.7773 15.8686 -395.922 -74.8414 37.3268
lowerback 10.2887 0.435795 -8.66042
upperback 1.2581 -0.480247 -0.619227
thorax -4.39683 -0.118764 4.29658
lowerneck -13.8665 -6.80288 -11.1835
upperneck 31.2536 -10.728 8.8429
head 14.0937 -5.16826 3.62396
rclavicle -1.63003e-014 9.54166e-015
rhumerus -38.7637 -10.2496 -80.1877
rradius 35.8649
rwrist 2.66375
rhand -17.9186 10.5967
rfingers 7.12502
rthumb 8.34894 -19.2183
lclavicle -1.63003e-014 9.54166e-015
lhumerus -32.3619 1.54223 77.5194
lradius 35.2365
lwrist -2.17647
lhand -20.8693 24.4064
lfingers 7.12502
lthumb 5.50051 54.315
rfemur -30.116 -16.2359 19.0364
rtibia 30.5224
rfoot -9.97029 -23.1515
rtoes 28.6779
lfemur 1.11883 4.11443 -29.1811
ltibia 16.9395
lfoot -8.36533 4.53919
ltoes -21.0025
1309
root -7.79656 17.7725 15.8806 -398.201 -74.9523 39.6546
lowerback 10.3253 0.473335 -9.02718
upperback 1.23017 -0.487106 -0.751205
thorax -4.44465 -0.115369 4.36463
lowerneck -13.8139 -6.81708 -11.2339
upperneck 31.339 -10.7823 8.89009
head 14.1343 -5.19802 3.64466
rclavicle -1.91827e-014 -1.11319e-014
rhumerus -38.4646 -10.5939 -80.1118
rradius 35.3038
rwrist 3.21141
rhand -17.4198 10.8009
rfingers 7.12502
rthumb 8.83027 -18.9943
lclavicle -1.91827e-014 -1.11319e-014
lhumerus -32.2856 1.39872 77.465
lradius 35.5487
lwrist -1.90265
lhand -22.0979 25.3215
lfingers 7.12502
lthumb 4.31425 55.2576
rfemur -30.3024 -15.615 18.6317
rtibia 29.7126
rfoot -10.3314 -25.0382
rtoes 29.1474
lfemur 1.8373 4.76765 -29.5385
ltibia 16.0767
lfoot -8.09136 4.24683
ltoes -22.1348
1310
root -7.8795 17.7701 15.8932 -399.893 -75.2155 41.4098
lowerback 10.2883 0.525746 -9.12897
upperback 1.19823 -0.433023 -0.84478
thorax -4.46579 -0.086392 4.31512
lowerneck -13.7492 -6.86202 -11.2887
upperneck 31.4065 -10.8847 8.95
head 14.1724 -5.24741 3.66245
rclavicle 3.43897e-014 2.3059e-014
rhumerus -38.3365 -10.6846 -80.1357
rradius 34.9442
rwrist 3.37132
rhand -17.0064 10.9646
rfingers 7.12502
rthumb 9.22912 -18.8134
lclavicle 3.43897e-014 2.3059e-014
lhumerus -32.1521 1.33321 77.3691
lradius 35.8243
lwrist -1.86613
lhand -22.4138 25.7775
lfingers 7.12502
lthumb 4.00922 55.7195
rfemur -30.474 -14.9761 18.5229
rtibia 28.9363
rfoot -10.6459 -27.0569
rtoes 28.9721
lfemur 2.4238 4.95726 -29.7328
ltibia 15.4289
lfoot -7.70354 4.42926
ltoes -23.1144
1311
root -7.96072 17.7734 15.9072 -401.274 -75.6152 42.7823
lowerback 10.3173 0.556818 -8.98318
upperback 1.15865 -0.385242 -0.922455
thorax -4.53228 -0.0621809 4.14485
lowerneck -13.6769 -6.84993 -11.0531
upperneck 31.5009 -10.8942 8.74443
head 14.1669 -5.25572 3.53932
rclavicle 1.71949e-014 -2.38542e-015
rhumerus -38.4316 -10.6099 -80.2406
rradius 34.8201
rwrist 3.39717
rhand -17.0126 10.9769
rfingers 7.12502
rthumb 9.22318 -18.8013
lclavicle 1.71949e-014 -2.38542e-015
lhumerus -32.1184 1.32971 77.1978
lradius 36.1776
lwrist -1.85847
lhand -21.4119 24.649
lfingers 7.12502
lthumb 4.97664 54.5706
rfemur -30.4937 -14.3991 18.5783
rtibia 28.1545
rfoot -10.8627 -28.8771
rtoes 28.6176
lfemur 2.93894 4.94067 -29.759
ltibia 15.074
lfoot -7.42159 4.84511
ltoes -23.3338
1312
root -8.03871 17.7733 15.9219 -402.688 -75.9677 44.1414
lowerback 10.444 0.563108 -8.77683
upperback 1.11481 -0.373939 -0.995785
thorax -4.6529 -0.0548465 3.95098
lowerneck -13.6206 -6.79719 -11.2145
upperneck 31.6526 -10.8449 8.83901
head 14.2339 -5.25005 3.61917
rclavicle 7.95139e-015 -1.66979e-014
rhumerus -38.5435 -10.6721 -80.2487
rradius 34.6804
rwrist 3.74232
rhand -17.1219 10.9728
rfingers 7.12502
rthumb 9.11772 -18.8101
lclavicle 7.95139e-015 -1.66979e-014
lhumerus -32.1589 1.25608 77.0958
lradius 36.6219
lwrist -1.63529
lhand -20.647 23.8168
lfingers 7.12502
lthumb 5.71521 53.7198
rfemur -30.4312 -13.9854 18.5993
rtibia 27.4668
rfoot -11.2436 -30.2725
rtoes 28.7107
lfemur 3.3963 5.06389 -29.7743
ltibia 14.9087
lfoot -7.27311 5.11686
ltoes -24.6581
1313
root -8.1156 17.7755 15.9308 -403.847 -76.2472 45.468
lowerback 10.3089 0.553618 -8.66414
upperback 1.05387 -0.363874 -1.04203
thorax -4.64417 -0.0504961 3.83669
lowerneck -13.5933 -6.77208 -11.8912
upperneck 31.7248 -10.8252 9.36304
head 14.3459 -5.26378 3.95838
rclavicle -9.24349e-015 2.62396e-014
rhumerus -38.5751 -10.8695 -80.1713
rradius 34.528
rwrist 4.14891
rhand -16.9174 11.1483
rfingers 7.12502
rthumb 9.315 -18.6259
lclavicle -9.24349e-015 2.62396e-014
lhumerus -32.1237 1.28659 77.0591
lradius 37.0043
lwrist -1.46355
lhand -20.5994 23.5989
lfingers 7.12502
lthumb 5.76109 53.5006
rfemur -30.5202 -12.9635 18.4418
rtibia 26.9511
rfoot -12.192 -32.0553
rtoes 29.8625
lfemur 3.52354 5.29683 -29.7963
ltibia 14.8615
lfoot -7.16776 5.15489
ltoes -25.7004
1314
root -8.19552 17.7794 15.9386 -405.475 -76.5214 47.3174
lowerback 10.0863 0.571965 -8.64581
upperback 0.99373 -0.320388 -1.11612
thorax -4.58955 -0.0303348 3.74089
lowerneck -13.6015 -6.7434 -12.3144
upperneck 31.8005 -10.7931 9.68092
head 14.4319 -5.26589 4.17193
rclavicle 7.7526e-015 1.51076e-014
rhumerus -38.5594 -10.9165 -80.1982
rradius 34.4015
rwrist 4.2548
rhand -16.8876 11.0507
rfingers 7.12502
rthumb 9.34375 -18.7222
lclavicle 7.7526e-015 1.51076e-014
lhumerus -32.0848 1.38869 77.01
lradius 37.359
lwrist -1.2854
lhand -20.7394 23.4228
lfingers 7.12502
lthumb 5.626 53.3282
rfemur -30.7351 -12.602 18.4984
rtibia 26.684
rfoot -12.2991 -33.1552
rtoes 30.1437
lfemur 3.60508 5.48171 -29.9081
ltibia 14.8242
lfoot -7.07208 5.2853
ltoes -25.5976
1315
root -8.27593 17.7783 15.9501 -407.415 -76.76 49.3578
lowerback 10.026 0.611892 -8.60955
upperback 0.927591 -0.264221 -1.18407
thorax -4.63357 -0.000269345 3.64087
lowerneck -13.5605 -6.7297 -12.3144
upperneck 31.8678 -10.7495 9.55583
head 14.4372 -5.2666 4.13008
rclavicle -7.7526e-015 0
rhumerus -38.6266 -10.7198 -80.2466
rradius 34.3543
rwrist 3.97496
rhand -17.002 10.8
rfingers 7.12502
rthumb 9.23343 -18.9778
lclavicle -7.7526e-015 0
lhumerus -32.1052 1.23573 77.1168
lradius 37.7388
lwrist -0.814314
lhand -20.9436 23.5505
lfingers 7.12502
lthumb 5.42876 53.461
rfemur -31.0472 -13.6611 18.993
rtibia 26.7065
rfoot -10.7488 -33.0058
rtoes 27.8946
lfemur 3.88921 5.54991 -30.0538
ltibia 14.6599
lfoot -6.93907 5.38791
ltoes -25.5725
1316
root -8.357 17.7731 15.9588 -409.82 -76.9238 51.7886
lowerback 10.0518 0.662708 -8.70834
upperback 0.871693 -0.21901 -1.25675
thorax -4.7133 0.0275129 3.61335
lowerneck -13.5392 -6.72585 -12.2286
upperneck 31.9727 -10.7137 9.33033
head 14.4516 -5.27254 4.03023
rclavicle 1.05356e-014 2.3059e-014
rhumerus -38.6796 -10.6825 -80.1851
rradius 34.2726
rwrist 4.20118
rhand -16.7931 10.875
rfingers 7.12502
rthumb 9.43494 -18.8938
lclavicle 1.05356e-014 2.3059e-014
lhumerus -32.19 1.10988 77.2232
lradius 38.1356
lwrist -0.537739
lhand -20.834 23.7478
lfingers 7.12502
lthumb 5.53464 53.6555
rfemur -31.3019 -14.6304 19.3394
rtibia 26.9206
rfoot -9.10276 -32.7071
rtoes 26.2259
lfemur 4.30857 5.46631 -30.3032
ltibia 14.42
lfoot -6.74053 5.57816
ltoes -26.0007
1317
root -8.44123 17.7699 15.9667 -412.698 -77.0885 54.6596
lowerback 10.0239 0.695921 -8.8392
upperback 0.848209 -0.195985 -1.36141
thorax -4.72594 0.0404951 3.57291
lowerneck -13.5215 -6.66857 -12.337
upperneck 32.1028 -10.6677 9.42818
head 14.5145 -5.26145 4.10207
rclavicle -2.19657e-014 1.66979e-014
rhumerus -38.6363 -10.686 -80.1853
rradius 34.0737
rwrist 4.60184
rhand -16.5888 11.0347
rfingers 7.12502
rthumb 9.6321 -18.7251
lclavicle -2.19657e-014 1.66979e-014
lhumerus -32.2984 1.11437 77.2044
lradius 38.4959
lwrist -0.315013
lhand -20.88 23.914
lfingers 7.12502
lthumb 5.49018 53.8229
rfemur -31.5631 -15.868 19.8312
rtibia 27.2616
rfoot -6.90889 -32.0352
rtoes 24.082
lfemur 4.75301 5.40639 -30.6042
ltibia 14.2554
lfoot -6.50112 5.89655
ltoes -26.5277
1318
root -8.52486 17.7682 15.974 -415.357 -77.319 57.2784
lowerback 10.0209 0.748517 -8.85739
upperback 0.84074 -0.13309 -1.42023
thorax -4.74053 0.0713331 3.51227
lowerneck -13.5559 -6.63937 -12.495
upperneck 32.266 -10.6667 9.57645
head 14.6191 -5.26822 4.19541
rclavicle 1.48095e-014 1.59028e-014
rhumerus -38.611 -10.5015 -80.2234
rradius 33.9562
rwrist 4.52424
rhand -16.6404 10.9582
rfingers 7.12502
rthumb 9.58229 -18.8039
lclavicle 1.48095e-014 1.59028e-014
lhumerus -32.3352 1.13765 77.2182
lradius 38.7659
lwrist -0.0533699
lhand -21.0154 23.7247
lfingers 7.12502
lthumb 5.35951 53.6369
rfemur -31.6126 -15.9313 19.8586
rtibia 27.6512
rfoot -7.02488 -32.2374
rtoes 26.6131
lfemur 5.14566 5.47765 -30.7443
ltibia 14.2251
lfoot -6.37337 6.06088
ltoes -26.8773
